<svg viewBox="0 0 24 24" fill="currentcolor" stroke="none"><path d="m8.3359.0078125c-2.0069.073882-3.9461 1.339-5.1719 3.1055-1.2258 1.7665-1.686 4.04-.90234 6.2734.7201 2.0524 2.301 3.6839 4.377 4.3066l-.40234 2.5547c-.61924-.29743-1.2854-.52634-1.9707-.55078-1.0699-.03816-2.6915.27366-3.707 2.0703-.69877 1.2362-.81095 2.9826.10555 4.4707.61159.99303 1.7053 1.9179 4.2929 1.4745 1.4845-.25433 2.2237-1.3456 2.9082-2.9727.37179-.88378.65101-2.0921 1.1895-2.8398.73644-1.0227 2.285-1.5902 3.2578-1.6113-.93782-.45256-3.7855-1.1922-5.584 1.8008-.48715.8107-1.0605 2.4179-1.9609 2.9531-.2998.1782-.76718.0994-1.0781-.13477-.20088-.15128-.95922-1.0342-.16016-1.9395.21799-.24696.54865-.3631.93555-.33398.26333.01982.55734.12268.88477.35352.21582-.44651.44063-.88851.68359-1.3204.19226-.34173.49358-.75049.88086-1.1426l.87305-5.3652c-.24381.10022-.52508.15616-.76367.18559-.41295.05094-.81717.02605-1.1895-.08789-.48449-.14828-.99894-.41785-1.2695-.93554-.086172-.16486-.024184-.37016.13477-.4668.17373-.10562.37573-.028092.5.13281.41046.53144 1.1723.85969 2.0879.58794 1.2598-.3318 2.1585-.89477 2.7973-.94823.62644-.052424.9395.63646 1.1998 1.2859.08927-.40702.33679-1.217 1-.30078.020069-.7907.48358-.94364.93945-.37895-1.2259-2.9496-3.6999-1.7628-5.0589-1.4148-.63799.1634-1.8432.2286-2.5441-1.5549-.19205-1.9238.832-3.0815 1.9497-3.6181 1.11-.5329 2.4759-.33316 3.4043.23242-.36121.71072-.96917.66041-1.7031.73633.97044.57933 1.6654.51691 2.4707.23438.05017.64643-.27301.94594-.66797 1.4023 1.1363.014693 1.7281-.12865 1.9199-.2207-.06996-.12068-.13737-.24477-.20117-.375-.15114-.30851-.20068-1.0047-.10742-1.7402.2535.25256.66781.50633 1.0586.54492-.13923-.55326.04953-1.4041.36523-1.9453.17929.22031.65534.48341 1.0664.51758-.03367-.13937-.01471-.38143.01758-.63672-.9214-.25345-1.2388-.43896-1.8164-.75195-.73954-.40078-3.2824-1.7015-5.041-1.6367zm11.457 1.4355-.50391 1.0195c-.6186-.30447-1.3497.099697-1.4238.78516.0.0-1.575-.59615-1.7793-1.3223-.25838.42041-.34228 1.2928-.10156 1.9375-.25368.056883-1.3427-.18224-1.5254-.42578-.17662.4343-.06096 1.5935.38086 1.9824-.70463-.029033-1.2107-.10404-1.6016-.47266.05528.65482 1.1567 2.5058 3.0605 2.4473 1.8859-.057961 5.3416-2.0444 5.1172.77734l.76367-.91406.44922 1.082.12891-1.502.62891.10352-.01563-.86719c-1.0878.21766-2.216.15404-3.2715-.1875.0.0.81541-1.2247 3.2109-.62695.0.0 1.0704-.18142.54492-1.0547-.52548-.87327-1.0156.42383-1.0156.42383-.45143-.28472-.85656-.63336-1.291-.94336-.79444-.56687-1.4356-1.3204-1.7559-2.2422zm-.8418 1.2695c.75216-.00879 1.4355.46302 1.7031 1.166.04186.10996.15236.15844.26758.13477.1635-.033594.32277.073435.36719.23438.04852.17581-.05737.35656-.23437.40039-.43572.1079-.84051-.14952-1.002-.56836-.02156-.055928-.27308-.7224-1.1016-.70117-.187.00479-.33205-.14489-.33203-.33203.0-.18715.14489-.3318.33203-.33398zm.25781 1.0957c.26687.00108.48296.21751.48242.48438-537e-6.26611-.21632.48135-.48242.48242-.26763.00108-.48579-.21479-.48633-.48242-541e-6-.2684.21793-.48546.48633-.48438zm-10.809 3.0397c-.34991.22367-.78824.66637-.87563 1.2212l-.02322.14744c.11372.12466.70444-9118e-7.7719-.043257.072919-.44812.27343-.56586.52734-.7258.23894-.15051.51638-.15096.6371-.12959l8.1113 1.4355-1.5332 9.2793-4.498-.7793c-.90219.26905-1.5466.74872-1.8106 1.1153-.23032.31978-.45999.95271-.64258 1.457h.00195l5.6465.94531.10547-.60938.26172-1.5273c.002-.0014.0039-.0025.0059-.0039l1.4961.27148.60547-3.5977c.53943.80503.83125 1.8162.69727 2.6641-.14.88552-.69613 1.6056-1.9375 1.9688-.12433.03633-.24744.06753-.36914.0957l-.19727 1.2051c-.03115.20643-.23137.34436-.43555.30078l-6.1348-1.0312-.4043.97656c1.464 1.0792 3.2449 2.1812 5.5723 2.2578 1.1718.03857 2.7611-.13523 4.207-.83594 1.4459-.7007 2.7188-1.9524 3.2031-3.9375.35588-1.4586.21674-3.049-.29883-4.4395-.7975-2.1508-2.4648-3.307-3.1621-3.625l.45703-2.7188-1.0625-.19141c-1.0515.21674-2.1447.13408-3.1035-.5625l-4.6797-.84768c-.15388-.027874-.67134-.034627-1.1391.26435zm1.2523 3.6087-.00195.0039-.8125 4.8438c.78057-.26418 1.5395-.2905 2.2051-.20898l.64636-3.8533c-.23318.2305-.41364.22022-.48214.21007-.51767-.07669-.62748-.99295-.98846-1.1614-.11104-.05182-.29544-.02624-.56639.16594z"></path></svg>